<svg width="15" height="27" viewBox="0 0 15 27" fill="none" xmlns="http://www.w3.org/2000/svg">
<path d="M12.091 0.00785783L1.01027 2.17913C0.921736 2.19647 0.841475 2.24275 0.782108 2.31068C0.72274 2.37861 0.687632 2.46435 0.682303 2.55441L0.000715225 14.0664C-0.00303301 14.1296 0.0079882 14.1927 0.0329047 14.2509C0.0578213 14.309 0.0959471 14.3605 0.144255 14.4013C0.192562 14.4422 0.249722 14.4712 0.311197 14.486C0.372671 14.5009 0.436767 14.5013 0.498396 14.487L3.58347 13.7751C3.87209 13.7085 4.13295 13.9627 4.07356 14.253L3.15701 18.7413C3.09538 19.0434 3.37889 19.3016 3.67387 19.212L5.57942 18.6331C5.87477 18.5435 6.15866 18.8024 6.09615 19.1048L4.63959 26.1548C4.54845 26.5959 5.13504 26.8363 5.37958 26.4583L5.54306 26.2058L14.5723 8.18616C14.7236 7.88446 14.4627 7.54043 14.1315 7.60443L10.9558 8.21729C10.6575 8.27482 10.4036 7.9969 10.4878 7.70504L12.5604 0.519982C12.6447 0.227375 12.3897 -0.0506636 12.091 0.00785783Z" fill="url(#paint0_linear_34_4)"/>
<defs>
<linearGradient id="paint0_linear_34_4" x1="633.998" y1="59.74" x2="966.211" y2="2338.64" gradientUnits="userSpaceOnUse">
<stop stop-color="#3498DB"/>
<stop offset="0.08333" stop-color="#FFDD35"/>
<stop offset="1" stop-color="#FFA800"/>
</linearGradient>
</defs>
</svg>
